<?xml version="1.0" encoding="UTF-8"?>
<svg width="24px" height="24px" viewBox="0 0 24 24" version="1.1" xmlns="http://www.w3.org/2000/svg">
    <g stroke="none" stroke-width="1" fill="none" fill-rule="evenodd">
        <path d="M11,9 L9,9 L9,2 L7,2 L7,9 L5,9 L5,2 L3,2 L3,9 C3,11.12 4.66,12.84 6.75,12.97 L6.75,22 L9.25,22 L9.25,12.97 C11.34,12.84 13,11.12 13,9 L13,2 L11,2 L11,9 Z M16,6 L14,6 L14,14 L16,14 L16,6 Z M16,2 L14,2 L14,4 L16,4 L16,2 Z M22,6 L20,6 L20,14 L22,14 L22,6 Z M22,2 L20,2 L20,4 L22,4 L22,2 Z" fill="#000000" fill-rule="nonzero"/>
    </g>
</svg> 